<svg width="47" height="63" viewBox="0 0 47 63" fill="none" xmlns="http://www.w3.org/2000/svg">
<path d="M32.1843 1.5C32.1843 9.43909 38.1459 15.875 45.5 15.875C38.1459 15.875 32.1843 22.3109 32.1843 30.25C32.1843 22.3109 26.2226 15.875 18.8685 15.875C22.8122 15.875 26.3554 14.0241 28.7936 11.0833" stroke="#5C8F98" stroke-width="3" stroke-linecap="round" stroke-linejoin="round"/>
<path d="M14.8158 32.75C14.8158 40.6891 20.7774 47.125 28.1316 47.125C20.7774 47.125 14.8158 53.5609 14.8158 61.5C14.8158 53.5609 8.8541 47.125 1.5 47.125C5.44369 47.125 8.98696 45.2741 11.4252 42.3333" stroke="#5C8F98" stroke-width="3" stroke-linecap="round" stroke-linejoin="round"/>
<path d="M38.5526 32.75C38.5526 36.8921 41.663 40.25 45.5 40.25C41.663 40.25 38.5526 43.6078 38.5526 47.75C38.5526 43.6078 35.4421 40.25 31.6052 40.25C33.6628 40.25 35.5115 39.2843 36.7836 37.75" stroke="#5C8F98" stroke-width="3" stroke-linecap="round" stroke-linejoin="round"/>
<path d="M6.71053 10.25C6.71053 13.3566 9.04334 15.875 11.9211 15.875C9.04334 15.875 6.71053 18.3934 6.71053 21.5C6.71053 18.3934 4.37769 15.875 1.5 15.875C3.04318 15.875 4.42968 15.1508 5.38376 14" stroke="#5C8F98" stroke-width="3" stroke-linecap="round" stroke-linejoin="round"/>
</svg>
