<svg width="47" height="63" viewBox="0 0 47 63" fill="none" xmlns="http://www.w3.org/2000/svg">
<path d="M32.1842 1.5C32.1842 9.43908 38.1458 15.875 45.5 15.875C38.1458 15.875 32.1842 22.3108 32.1842 30.25C32.1842 22.3108 26.2225 15.875 18.8683 15.875C22.8121 15.875 26.3553 14.0241 28.7936 11.0833" stroke="#A785A7" stroke-width="3" stroke-linecap="round" stroke-linejoin="round"/>
<path d="M14.8158 32.75C14.8158 40.6891 20.7775 47.125 28.1317 47.125C20.7775 47.125 14.8158 53.5608 14.8158 61.5C14.8158 53.5608 8.85413 47.125 1.5 47.125C5.44371 47.125 8.98699 45.2741 11.4252 42.3333" stroke="#A785A7" stroke-width="3" stroke-linecap="round" stroke-linejoin="round"/>
<path d="M38.5526 32.75C38.5526 36.8921 41.663 40.25 45.5 40.25C41.663 40.25 38.5526 43.6078 38.5526 47.75C38.5526 43.6078 35.4421 40.25 31.6052 40.25C33.6628 40.25 35.5114 39.2843 36.7835 37.75" stroke="#A785A7" stroke-width="3" stroke-linecap="round" stroke-linejoin="round"/>
<path d="M6.71055 10.25C6.71055 13.3566 9.04337 15.875 11.9211 15.875C9.04337 15.875 6.71055 18.3934 6.71055 21.5C6.71055 18.3934 4.3777 15.875 1.5 15.875C3.04319 15.875 4.42969 15.1507 5.38378 14" stroke="#A785A7" stroke-width="3" stroke-linecap="round" stroke-linejoin="round"/>
</svg>
