<svg width="312" height="339" viewBox="0 0 312 339" fill="none" xmlns="http://www.w3.org/2000/svg">
<path d="M100.672 225.205C100.672 231.854 105.624 237.244 111.733 237.244C117.842 237.244 122.794 231.854 122.794 225.205H100.672ZM144.915 143.74C144.915 150.389 149.867 155.779 155.976 155.779C162.084 155.779 167.036 150.389 167.036 143.74H144.915ZM56.4297 143.74C56.4297 150.389 61.3818 155.779 67.4904 155.779C73.599 155.779 78.551 150.389 78.551 143.74H56.4297ZM82.2379 213.166C76.1293 213.166 71.1773 218.556 71.1773 225.205C71.1773 231.854 76.1293 237.244 82.2379 237.244V213.166ZM141.228 237.244C147.337 237.244 152.289 231.854 152.289 225.205C152.289 218.556 147.337 213.166 141.228 213.166V237.244ZM95.8794 124.879H111.733V100.8H95.8794V124.879ZM111.733 124.879H127.587V100.8H111.733V124.879ZM122.794 225.205V112.84H100.672V225.205H122.794ZM127.587 124.879C134.289 124.879 138.289 124.901 141.177 125.293C143.793 125.648 143.929 126.136 143.678 125.892L158.371 107.893C153.929 103.597 148.763 102.058 143.915 101.4C139.339 100.778 133.714 100.8 127.587 100.8V124.879ZM167.036 143.74C167.036 137.07 167.057 130.947 166.486 125.967C165.882 120.692 164.467 115.067 160.52 110.232L143.985 126.226C143.76 125.952 144.209 126.1 144.535 128.948C144.894 132.091 144.915 136.444 144.915 143.74H167.036ZM143.678 125.892C143.785 125.997 143.889 126.108 143.985 126.226L160.52 110.232C159.847 109.407 159.129 108.626 158.371 107.893L143.678 125.892ZM95.8794 100.8C89.7512 100.8 84.1265 100.778 79.5512 101.4C74.704 102.058 69.537 103.597 65.0948 107.893L79.789 125.892C79.5371 126.136 79.673 125.648 82.2893 125.293C85.1773 124.901 89.1762 124.879 95.8794 124.879V100.8ZM78.551 143.74C78.551 136.444 78.5713 132.091 78.9314 128.948C79.2578 126.1 79.7058 125.952 79.4819 126.226L62.9461 110.232C58.9986 115.067 57.5847 120.692 56.9802 125.967C56.4095 130.947 56.4297 137.07 56.4297 143.74H78.551ZM65.0948 107.893C64.3369 108.626 63.6194 109.407 62.9461 110.232L79.4819 126.226C79.5782 126.108 79.6807 125.997 79.789 125.892L65.0948 107.893ZM82.2379 237.244H141.228V213.166H82.2379V237.244Z" fill="#A785A7"/>
<path d="M303.451 169.022C303.451 229.558 303.451 259.828 286.173 278.633C270.495 295.698 246.147 297.279 200.218 297.425M155.976 40.6042H126.481C70.864 40.6042 43.0558 40.6042 25.7778 59.4106C8.5 78.217 8.5 108.485 8.5 169.022C8.5 229.558 8.5 259.828 25.7778 278.633C43.0558 297.44 70.864 297.44 126.481 297.44H155.976M200.218 40.6192C246.147 40.7654 270.495 42.3456 286.173 59.4106C295.806 69.8955 300.068 83.9435 301.955 104.813" stroke="#A785A7" stroke-width="17" stroke-linecap="round"/>
<path d="M200.218 8.5V329.545" stroke="#A785A7" stroke-width="17" stroke-linecap="round"/>
</svg>
