<svg width="312" height="312" viewBox="0 0 312 312" fill="none" xmlns="http://www.w3.org/2000/svg">
<path d="M156.377 215.779V260.637" stroke="#B9B99D" stroke-width="12" stroke-linecap="round"/>
<path d="M207.821 305.495H103.613L108.663 280.432C110.055 273.525 116.164 268.553 123.261 268.553H188.174C195.27 268.553 201.38 273.525 202.772 280.432L207.821 305.495Z" stroke="#B9B99D" stroke-width="12" stroke-linecap="round" stroke-linejoin="round"/>
<path d="M260.585 50.8584L274.767 55.5866C289.569 60.5213 296.969 62.9887 301.202 68.8627C305.436 74.7368 305.436 82.5393 305.434 98.1441V99.2286C305.434 112.099 305.434 118.534 302.336 123.799C299.239 129.064 293.615 132.189 282.366 138.44L238.16 163.004" stroke="#B9B99D" stroke-width="12"/>
<path d="M50.8489 50.8584L36.6671 55.5866C21.8658 60.5213 14.4651 62.9887 10.2323 68.8627C5.99941 74.7368 5.99956 82.5393 6.00001 98.1441V99.2286C6.00046 112.099 6.00061 118.534 9.09808 123.799C12.1954 129.064 17.8199 132.189 29.0685 138.44L73.2738 163.004" stroke="#B9B99D" stroke-width="12"/>
<path d="M142.761 66.1477C148.525 55.9549 151.407 50.8584 155.717 50.8584C160.027 50.8584 162.909 55.9549 168.673 66.1477L170.164 68.7848C171.801 71.6813 172.62 73.1296 173.897 74.0851C175.175 75.0407 176.765 75.3954 179.946 76.1047L182.841 76.7507C194.035 79.2472 199.633 80.4955 200.964 84.7162C202.296 88.9369 198.48 93.3349 190.849 102.131L188.874 104.407C186.707 106.906 185.622 108.156 185.134 109.702C184.647 111.248 184.81 112.916 185.138 116.251L185.437 119.287C186.59 131.023 187.168 136.89 183.682 139.5C180.194 142.107 174.955 139.73 164.474 134.974L161.763 133.743C158.784 132.391 157.296 131.715 155.717 131.715C154.138 131.715 152.65 132.391 149.67 133.743L146.959 134.974C136.479 139.73 131.239 142.107 127.752 139.5C124.267 136.89 124.843 131.023 125.997 119.287L126.296 116.251C126.623 112.916 126.787 111.248 126.3 109.702C125.812 108.156 124.728 106.906 122.559 104.407L120.585 102.131C112.954 93.3349 109.138 88.9369 110.47 84.7162C111.801 80.4955 117.398 79.2472 128.592 76.7507L131.488 76.1047C134.669 75.3954 136.259 75.0407 137.536 74.0851C138.813 73.1296 139.633 71.6813 141.269 68.7848L142.761 66.1477Z" stroke="#B9B99D" stroke-width="12"/>
<path d="M246.075 305.495H65.3593" stroke="#B9B99D" stroke-width="12" stroke-linecap="round"/>
<path d="M230.76 12.8323C241.89 14.9526 248.488 17.2829 254.188 24.2931C261.329 33.0724 260.951 42.5611 260.196 61.5384C257.484 129.762 242.169 215.778 155.718 215.778C69.2656 215.778 53.9507 129.762 51.2376 61.5384C50.483 42.5611 50.1056 33.0724 57.2458 24.2931C64.3857 15.5141 72.9315 14.0745 90.0228 11.1956C106.894 8.35386 128.948 6 155.718 6C166.497 6 176.513 6.3818 185.733 7.02327" stroke="#B9B99D" stroke-width="12" stroke-linecap="round"/>
</svg>
