<svg width="358" height="358" viewBox="0 0 358 358" fill="none" xmlns="http://www.w3.org/2000/svg">
<path d="M275.15 237.119C281.485 239.231 270.926 244.16 269.871 244.864C266.353 246.975 267.056 250.497 267.056 253.664C268.463 276.543 255.09 275.135 237.147 271.971C214.979 268.452 195.272 268.804 187.178 294.146C183.66 305.764 181.547 318.08 178.733 329.698C176.974 337.443 188.585 340.258 190.347 332.513C193.161 320.895 195.274 308.93 198.792 297.665C204.424 279.006 219.201 281.123 235.037 283.936C261.076 288.161 280.781 284.639 279.023 252.961C286.764 247.68 292.395 241.343 286.413 232.194C294.858 226.209 296.617 223.394 293.099 216.004C301.545 213.893 311.752 208.611 310.691 198.407C309.987 192.422 302.245 182.568 298.724 177.639C292.39 168.136 284.648 156.52 281.133 150.887C287.116 140.328 286.412 126.249 282.892 114.983C263.187 53.3738 215.683 13.948 149.526 21.3433C83.7248 28.3839 40.092 62.5289 47.4779 132.225C49.9403 154.048 57.3302 177.633 68.2381 200.514C86.8907 240.644 64.7203 290.976 49.9373 328.994C47.1231 336.386 58.0311 340.612 60.848 333.219C77.0328 291.33 99.5542 239.943 78.7969 195.584C68.5927 173.41 61.5572 151.584 59.4406 131.169C52.7541 68.1602 91.8151 39.2959 150.927 32.962C211.1 26.6252 253.68 62.1775 271.622 118.494C274.084 126.59 275.494 139.965 269.863 147.006C268.104 148.765 268.104 151.583 269.159 153.694C271.27 158.272 281.125 172.705 289.216 184.318C292.734 189.599 295.55 194.173 297.661 197.343C298.365 198.399 299.42 199.454 298.365 200.51C295.199 203.677 287.102 205.087 282.884 205.439C278.308 205.791 276.197 211.072 278.308 214.591C282.18 220.224 281.474 220.928 275.142 225.15H261.769C254.027 225.15 254.027 237.121 261.769 237.121L275.15 237.119ZM128.06 149.821C131.932 160.735 136.506 170.236 145.651 177.628C138.613 178.332 131.927 178.332 125.946 177.98C118.556 165.312 120.321 160.031 128.06 149.821ZM162.897 174.461C146.36 166.013 141.433 155.451 136.857 138.205C139.319 134.332 143.543 123.068 145.302 121.312C148.117 118.497 165.359 120.256 169.932 115.679C176.97 117.79 188.585 120.96 198.786 122.016C198.434 124.127 198.434 126.241 198.082 127.649C197.027 136.449 196.675 140.674 204.769 148.768C202.307 148.768 200.193 148.768 197.731 148.416C185.764 146.656 178.726 132.226 161.487 135.39C153.745 137.15 156.207 148.768 163.597 147.361C171.691 145.601 195.972 160.034 186.117 166.723C181.898 169.885 173.804 171.996 162.896 174.462L162.897 174.461ZM219.904 146.654C208.993 137.502 209.348 135.035 210.051 129.056C210.051 126.945 210.403 124.479 210.403 121.664C213.569 120.96 216.034 120.256 217.793 119.904C219.904 121.312 221.665 122.719 223.073 123.778C230.814 130.115 232.573 130.467 242.077 125.185C238.911 135.745 231.166 142.783 220.965 146.304L219.904 146.654ZM229.05 78.3642C236.792 87.1646 242.423 99.1313 243.478 110.749C243.127 111.453 241.016 112.861 238.199 114.268C230.105 118.142 229.05 112.509 221.662 108.284C218.848 106.524 217.79 106.876 214.976 107.932C203.362 112.509 191.05 108.987 179.436 105.82C186.122 101.243 191.402 93.8501 200.548 95.6127C211.458 97.7241 223.067 91.0354 225.177 79.7745C225.886 76.2528 226.939 75.549 229.05 78.3642ZM218.491 67.8075C215.677 69.9188 214.619 72.3849 213.915 75.2001C199.839 69.2151 177.671 55.4882 167.113 73.4406C165.354 76.2557 164.298 76.6077 163.24 76.9596C158.664 78.3672 155.498 79.4228 153.036 91.0408C152.333 93.8559 148.46 94.2079 146.701 92.0965C144.591 87.871 142.477 86.4634 139.311 86.1115C144.591 72.7343 159.017 62.1775 175.555 49.8554C191.05 51.9668 206.179 57.9491 218.491 67.8075ZM204.772 83.9977C198.789 82.5901 182.957 81.1826 173.456 95.6159C172.049 96.6715 169.938 96.6715 165.01 91.0385C165.714 88.5753 166.066 88.5753 166.769 88.2234C169.935 87.5196 173.456 86.112 177.325 79.423C181.547 72.0276 199.141 81.5344 204.772 83.9977ZM158.673 101.601C159.728 102.656 160.784 103.712 161.839 104.416C161.136 105.119 160.784 105.823 160.432 106.527C156.208 107.231 151.635 107.583 147.411 108.286L147.763 104.768C151.99 105.82 155.158 103.709 158.673 101.601ZM115.745 113.213C108.003 117.087 105.189 118.846 96.0401 115.325C89.7053 112.861 85.1294 108.988 78.0912 107.932C81.2572 94.9066 88.6471 83.998 98.1476 75.1948C104.834 86.8129 110.466 87.5169 115.035 88.2201C116.091 88.2201 117.146 88.572 118.201 90.3314C118.553 91.739 120.664 93.1465 122.777 94.205C121.376 97.3748 117.152 111.453 115.745 113.213L115.745 113.213ZM89.7027 125.535C84.7751 128.702 80.9052 132.224 77.3847 138.561C75.9776 132.224 75.6258 126.238 75.9776 119.55C80.9079 120.606 85.1322 123.776 89.7027 125.535ZM83.7252 154.399C93.9293 125.183 111.524 133.632 124.193 122.014C126.304 123.069 129.473 122.014 131.935 121.662C129.121 127.999 127.008 132.221 122.787 137.5C110.118 153.69 104.486 160.379 111.172 175.164C99.2063 171.645 90.4123 164.956 83.7259 154.4L83.7252 154.399ZM158.324 49.5021C144.952 60.4163 135.805 66.3955 127.711 83.2952C124.193 77.3102 120.673 76.9583 116.801 76.2546C114.338 76.2546 111.873 75.9027 107.3 67.4542C122.08 56.5427 140.381 50.558 158.324 49.5021ZM129.822 110.047C130.878 106.88 131.933 102.654 134.046 97.7248C135.102 97.7248 135.805 97.7248 136.509 98.0767C136.157 101.244 135.453 109.343 135.453 109.343C135.453 109.695 130.174 110.047 129.822 110.047ZM172.049 184.322C166.418 193.473 163.955 203.332 163.955 213.889L154.807 210.37C155.862 206.145 157.973 199.456 155.158 195.585C152.696 192.066 148.12 192.066 144.248 194.881C125.595 208.962 99.9099 210.018 96.7412 182.208C121.027 194.884 147.065 190.659 172.052 184.322L172.049 184.322ZM84.7863 173.762C84.0828 209.666 109.064 227.264 142.846 209.666C142.143 213.54 141.439 218.115 146.012 219.874L168.18 228.322C172.404 230.434 177.328 226.915 176.625 221.986C170.994 183.266 203.369 179.393 200.2 160.385C231.868 162.848 259.315 142.787 255.094 107.587C251.928 84.0045 236.441 64.2906 216.74 51.9713C178.736 28.3885 127.006 34.3739 93.5804 63.2375C71.0611 82.6002 59.4467 110.056 65.782 139.977C68.5962 152.998 74.5795 164.962 84.7864 173.765L84.7863 173.762Z" fill="#5C8F98" stroke="#B3DAE0" stroke-width="0.390625"/>
</svg>
