<svg width="357" height="257" viewBox="0 0 357 257" fill="none" xmlns="http://www.w3.org/2000/svg">
<path d="M70.3443 272.717C61.4047 263.369 60.8933 258.741 68.8104 258.832C80.6859 258.969 110.591 256.909 112.667 249.323C114.743 241.736 112.987 233.043 102.428 230.107C91.8708 227.17 87.3141 228.761 85.5082 231.341C83.7025 233.921 85.2013 239.657 101.36 239.843C117.518 240.03 129.994 232.591 130.078 227.039C130.162 221.487 121.798 205.815 105.08 201.969C88.3613 198.123 82.5549 201.71 82.4657 207.607C82.3764 213.504 121.612 223.355 135.684 219.698C149.756 216.04 182.635 201.807 156.89 179.206C131.144 156.606 105.967 156.867 102.451 167.702C98.9365 178.538 140.598 198.153 168.502 198.475C196.405 198.797 220.046 196.672 223.754 184.5C227.461 172.329 214.609 146.48 186.215 132.085C157.82 117.69 103.806 97.8597 99.8155 120.455C95.8251 143.05 133.225 163.458 157.087 166.134C180.95 168.81 220.32 172.247 243.668 149.086C255.163 136.572 249.057 118.567 217.988 99.8299C176.277 77.6589 130.332 59.9033 116.877 81.6943C103.423 103.485 156.042 137.254 169.344 142.818C182.646 148.382 246.863 176.223 282.913 154.511C308.224 137.708 278.649 93.5388 244.823 72.7725C210.997 52.0063 141.616 24.5395 120.166 44.9268C113.024 51.1575 112.936 57.0134 119.9 62.4943" stroke="black" stroke-opacity="0.9" stroke-width="5" stroke-linecap="round" stroke-linejoin="round"/>
</svg>
