<svg width="274" height="248" viewBox="0 0 274 248" fill="none" xmlns="http://www.w3.org/2000/svg">
<path d="M60.4494 45.9467C68.4804 41.686 72.0246 41.9112 71.0821 46.6224C69.6683 53.6891 67.9211 71.7606 73.4091 73.8674C78.8969 75.9749 85.6422 75.9229 89.0205 69.9625C92.3986 64.0026 91.7025 61.1027 89.9573 59.7302C88.2121 58.3576 83.7244 58.5945 81.8008 68.2097C79.877 77.8253 84.1061 86.1176 88.2808 86.8037C92.4554 87.4898 105.189 84.2973 109.932 74.7672C114.676 65.237 112.614 61.3633 108.18 60.6346C103.745 59.9058 91.9912 82.1769 93.1948 90.9885C94.3984 99.7995 101.496 121.039 121.37 108.274C141.243 95.508 143.825 80.463 136.047 77.125C128.269 73.7877 108.889 96.3869 105.567 112.992C102.245 129.596 101.238 143.939 110.001 147.544C118.764 151.15 139.663 146.446 153.645 131.161C167.626 115.876 188.532 85.9339 171.944 80.9657C155.356 75.9974 135.849 95.9646 131.199 109.889C126.549 123.814 119.614 146.9 134.492 163.478C142.654 171.767 156.897 170.188 174.446 153.805C195.758 131.469 214.209 106.102 199.271 95.5815C184.334 85.0612 153.079 112.574 147.418 119.87C141.757 127.166 113.689 162.274 126.073 186.262C135.943 203.282 172.493 190.704 191.876 172.909C211.258 155.114 239.614 116.883 226.617 101.755C222.71 96.7817 218.306 96.058 213.407 99.5838" stroke="black" stroke-opacity="0.9" stroke-width="5" stroke-linecap="round" stroke-linejoin="round"/>
</svg>
