<svg width="2791" height="724" viewBox="0 0 2791 724" fill="none" xmlns="http://www.w3.org/2000/svg">
<path d="M0 427.723C64.7334 266.041 128.301 214.407 224.087 227.071C95.8025 404.019 618.766 634.742 618.767 408.951C717.187 450.778 859.121 409.567 982.901 343.904C1006.56 357.051 1032.15 372.333 1059.92 390.018C1205.27 560.294 732.069 664.901 485.962 664.901C239.855 664.901 0 589.613 0 427.723Z" fill="#E1B0F5" fill-opacity="0.6"/>
<path d="M347.557 145.47C-92.5332 314.475 618.923 671.935 618.923 408.702C857.951 510.227 1353.58 122.372 1222.82 83.4635C1092.06 44.555 637.905 270.094 709.613 145.471C781.321 20.847 347.557 38.4758 347.557 145.47Z" fill="#F1CDFF" fill-opacity="0.6"/>
<path d="M1676.75 180.163C1898.22 164.658 1719.25 -179.984 2344.59 126.599C2501.72 268.296 2178.72 370.752 1846.92 417.263C1860.15 334.438 1793.02 232.819 1603.56 167.878C1365.89 191.206 1507.69 408.942 1256.04 227.495C1252.15 198.695 1236.74 179.826 1213.69 169.185C1213.41 169.529 1213.12 169.873 1212.84 170.218C1235.27 76.5145 1328.67 3.5891 1491.58 40.6143C1658.03 87.1304 1579.73 162.543 1676.75 180.163Z" fill="#EBD1F5" fill-opacity="0.83"/>
<path d="M2757.3 373.535C2901.92 776.739 2547.36 720.492 2288.38 720.492C2029.4 720.492 1386.32 565.154 1386.32 373.535C1386.32 181.915 1836.25 501.195 2205.11 320.448C2525.76 199.108 2538.91 230.073 2757.3 373.535Z" fill="#E1ABF8"/>
<path d="M1603.57 167.877C1760.89 221.804 1833.86 301.024 1846.51 373.771C1596.05 350.027 1386.32 242.709 1386.32 373.534C1386.32 441.676 1467.64 505.23 1584.1 558.842C1385.77 587.552 1183.59 761.009 923.823 589.819C1052.33 542.439 1131.84 474.269 1059.92 390.021C1032.15 372.335 1006.56 357.052 982.902 343.905C1082.03 291.318 1169.52 223.048 1213.69 169.184C1236.74 179.825 1252.15 198.694 1256.04 227.494C1507.7 408.941 1365.89 191.205 1603.57 167.877Z" fill="#E5A6FF" fill-opacity="0.71"/>
</svg>
