<svg width="233" height="474" viewBox="0 0 233 474" fill="none" xmlns="http://www.w3.org/2000/svg">
<path d="M85.8327 121.49C54.8516 96.4681 94.8559 118.653 95.41 117.437C98.0223 111.7 87.4245 101.466 91.8633 95.6176C94.211 92.5197 104.677 109.653 106.408 109.957C108.847 110.385 115.23 93.9625 117.05 91.5654C121.777 85.3327 119.747 108.71 124.143 108.71C129.404 108.71 137.814 91.3372 144.01 94.0593C146.953 95.3524 139.664 108.944 138.687 111.515C135.159 120.818 185.675 101.133 147.202 123.671" stroke="black" stroke-opacity="0.9" stroke-width="5" stroke-linecap="round" stroke-linejoin="round"/>
<path d="M91.6108 136.426C91.6108 143.668 91.6108 150.833 91.6108 158.109" stroke="black" stroke-opacity="0.9" stroke-width="5" stroke-linecap="round" stroke-linejoin="round"/>
<path d="M143.178 136.426C140.615 149.169 150.31 161.503 146.003 173.415" stroke="black" stroke-opacity="0.9" stroke-width="5" stroke-linecap="round" stroke-linejoin="round"/>
<path d="M114.657 122.978C60.5567 151.347 141.278 183.61 141.278 146.482C141.278 135.836 128.322 142.157 121.49 119.844" stroke="black" stroke-opacity="0.9" stroke-width="5" stroke-linecap="round" stroke-linejoin="round"/>
<path d="M13.0903 15.9675C12.7332 54.3275 65.6464 18.1026 51.0958 5.63166C49.5698 4.32316 41.8029 12.7136 39.7656 13.149C35.9443 13.9688 34.6857 0.279672 31.7265 2.81333C29.9189 4.36254 28.0893 15.0272 25.1505 15.0272C20.0046 15.0272 12.7253 -9.12737 12.7253 14.0892" stroke="black" stroke-opacity="0.9" stroke-width="5" stroke-linecap="round" stroke-linejoin="round"/>
<path d="M41.9424 130.049C89.8378 224.612 49.2437 312.824 49.5038 420.858" stroke="black" stroke-opacity="0.9" stroke-width="5" stroke-linecap="round" stroke-linejoin="round"/>
<path d="M97.4536 176.682C140.942 171.072 173.356 175.095 177.799 218.056" stroke="black" stroke-opacity="0.9" stroke-width="5" stroke-linecap="round" stroke-linejoin="round"/>
<path d="M157.348 201.476C163.359 276.114 162.943 353.947 180.721 427.236" stroke="black" stroke-opacity="0.9" stroke-width="5" stroke-linecap="round" stroke-linejoin="round"/>
<path d="M171.972 223.149C203.135 210.656 203.942 193.942 219.706 221.504C219.921 221.878 230.631 234.872 230.385 235.229C220.199 250.07 181.278 250.552 167.573 266.525" stroke="black" stroke-opacity="0.9" stroke-width="5" stroke-linecap="round" stroke-linejoin="round"/>
<path d="M46.3242 127.498C55.3213 124.875 61.3485 118.67 69.6974 122.158" stroke="black" stroke-opacity="0.9" stroke-width="5" stroke-linecap="round" stroke-linejoin="round"/>
<path d="M41.9425 40.7651C37.968 78.5238 31.5951 79.9785 24.4126 44.2843" stroke="black" stroke-opacity="0.9" stroke-width="5" stroke-linecap="round" stroke-linejoin="round"/>
<path d="M11.708 35.0486C136.465 14.3028 -10.0396 74.3198 3.37966 37.3992" stroke="black" stroke-opacity="0.9" stroke-width="5" stroke-linecap="round" stroke-linejoin="round"/>
<path d="M33.177 76.478C35.9014 92.2104 36.8729 109.149 43.4028 123.671" stroke="black" stroke-opacity="0.9" stroke-width="5" stroke-linecap="round" stroke-linejoin="round"/>
<path d="M44.8645 76.478C47.9781 92.2104 49.0884 109.149 56.5511 123.671" stroke="black" stroke-opacity="0.9" stroke-width="5" stroke-linecap="round" stroke-linejoin="round"/>
<path d="M138.356 206.578C125.01 229.493 96.8321 253.867 66.7761 257.597" stroke="black" stroke-opacity="0.9" stroke-width="5" stroke-linecap="round" stroke-linejoin="round"/>
<path d="M142.739 280.555C124.302 313.866 93.5095 337.127 56.5503 353.257" stroke="black" stroke-opacity="0.9" stroke-width="5" stroke-linecap="round" stroke-linejoin="round"/>
<path d="M6.88257 466.791C15.0514 455.465 13.4473 438.534 18.4062 428.721C23.3637 418.907 115.45 421.128 123.351 421.128C134.728 421.128 197.647 419.092 205.694 426.18C212.436 432.12 213.677 461.345 215.78 470.601" stroke="black" stroke-opacity="0.9" stroke-width="5" stroke-linecap="round" stroke-linejoin="round"/>
</svg>
