<svg width="345" height="301" viewBox="0 0 345 301" fill="none" xmlns="http://www.w3.org/2000/svg">
<path d="M146.146 137.054C151.238 129.414 159.124 126.267 167.523 125.605C190.96 123.759 222.245 154.306 193.176 171.401C161.073 190.279 122.96 165.314 144.924 141.095" stroke="black" stroke-opacity="0.9" stroke-width="5" stroke-linecap="round" stroke-linejoin="round"/>
<path d="M212.05 101.136C219.26 94.0721 233.104 79.1903 236.787 75.5532" stroke="black" stroke-opacity="0.9" stroke-width="5" stroke-linecap="round" stroke-linejoin="round"/>
<path d="M159.018 94.6551C159.96 84.5393 155.648 66.264 154.062 60.7422" stroke="black" stroke-opacity="0.9" stroke-width="5" stroke-linecap="round" stroke-linejoin="round"/>
<path d="M114.412 111.303C104.767 106.621 99.6238 96.8246 88.9233 95.2725" stroke="black" stroke-opacity="0.9" stroke-width="5" stroke-linecap="round" stroke-linejoin="round"/>
<path d="M92.4663 159.399C84.7696 158.987 77.1381 159.355 69.8097 160.632" stroke="black" stroke-opacity="0.9" stroke-width="5" stroke-linecap="round" stroke-linejoin="round"/>
<path d="M128.576 198.243C121.315 203.921 114.16 210.293 108.752 217.358" stroke="black" stroke-opacity="0.9" stroke-width="5" stroke-linecap="round" stroke-linejoin="round"/>
<path d="M178.844 211.192C182.952 219.491 182.385 229.972 182.385 239.505" stroke="black" stroke-opacity="0.9" stroke-width="5" stroke-linecap="round" stroke-linejoin="round"/>
<path d="M229.113 192.694C233.326 197.415 243.011 208.009 244.69 209.959" stroke="black" stroke-opacity="0.9" stroke-width="5" stroke-linecap="round" stroke-linejoin="round"/>
<path d="M249.645 139.667C255.171 139.899 279.352 129.064 273.009 135.967" stroke="black" stroke-opacity="0.9" stroke-width="5" stroke-linecap="round" stroke-linejoin="round"/>
</svg>
